HIERARCHY
ROOT Hips
{
  OFFSET 51.6394 86.3663 -21.2171
  CHANNELS 6 Xposition Yposition Zposition Zrotation Xrotation Yrotation
  JOINT Chest
  {
    OFFSET 1.23234e-007 14.8421 1.27319e-009
    CHANNELS 6 Xposition Yposition Zposition Zrotation Xrotation Yrotation
    JOINT Neck
    {
      OFFSET 0.51659 29.8236 6.51843
      CHANNELS 6 Xposition Yposition Zposition Zrotation Xrotation Yrotation
      JOINT Head
      {
        OFFSET 1.16803e-007 7.47049 6.44171e-007
        CHANNELS 6 Xposition Yposition Zposition Zrotation Xrotation Yrotation
        End Site
        {
          OFFSET -4.32676e-008 16.2908 2.16786e-007
        }
      }
    }
    JOINT LeftCollar
    {
      OFFSET 6.64893 27.3161 3.27471
      CHANNELS 6 Xposition Yposition Zposition Zrotation Xrotation Yrotation
      JOINT LeftUpArm
      {
        OFFSET 10.8584 2.41798 -0.945791
        CHANNELS 6 Xposition Yposition Zposition Zrotation Xrotation Yrotation
        JOINT LeftLowArm
        {
          OFFSET 3.77631 -24.5904 -1.70468
          CHANNELS 6 Xposition Yposition Zposition Zrotation Xrotation Yrotation
          JOINT LeftHand
          {
            OFFSET 1.01026 -21.1231 1.74131
            CHANNELS 6 Xposition Yposition Zposition Zrotation Xrotation Yrotation
            End Site
            {
              OFFSET 1.17583e-006 -9.81266 -2.89439e-008
            }
          }
        }
      }
    }
    JOINT RightCollar
    {
      OFFSET -6.11406 27.2248 4.23427
      CHANNELS 6 Xposition Yposition Zposition Zrotation Xrotation Yrotation
      JOINT RightUpArm
      {
        OFFSET -10.4566 2.3285 -0.910794
        CHANNELS 6 Xposition Yposition Zposition Zrotation Xrotation Yrotation
        JOINT RightLowArm
        {
          OFFSET -3.86856 -25.191 -1.74633
          CHANNELS 6 Xposition Yposition Zposition Zrotation Xrotation Yrotation
          JOINT RightHand
          {
            OFFSET -1.04759 -20.6242 1.75213
            CHANNELS 6 Xposition Yposition Zposition Zrotation Xrotation Yrotation
            End Site
            {
              OFFSET -2.03487e-006 -9.50367 -4.31372e-006
            }
          }
        }
      }
    }
  }
  JOINT LeftUpLeg
  {
    OFFSET 9 -3.38008e-006 -5.22997e-009
    CHANNELS 6 Xposition Yposition Zposition Zrotation Xrotation Yrotation
    JOINT LeftLowLeg
    {
      OFFSET -0.575 -51.431 3.90177
      CHANNELS 6 Xposition Yposition Zposition Zrotation Xrotation Yrotation
      JOINT LeftFoot
      {
        OFFSET 2.13082e-007 -43.5882 -3.90177
        CHANNELS 6 Xposition Yposition Zposition Zrotation Xrotation Yrotation
        End Site
        {
          OFFSET 7.44796e-007 -6.93413 15.0046
        }
      }
    }
  }
  JOINT RightUpLeg
  {
    OFFSET -9 6.86154e-007 -3.19535e-009
    CHANNELS 6 Xposition Yposition Zposition Zrotation Xrotation Yrotation
    JOINT RightLowLeg
    {
      OFFSET 0.575 -51.4311 3.90177
      CHANNELS 6 Xposition Yposition Zposition Zrotation Xrotation Yrotation
      JOINT RightFoot
      {
        OFFSET -7.46079e-007 -43.5882 -3.90177
        CHANNELS 6 Xposition Yposition Zposition Zrotation Xrotation Yrotation
        End Site
        {
          OFFSET 4.66716e-007 -6.93413 15.0046
        }
      }
    }
  }
}
MOTION
Frames:	8
Frame Time:	0.0333333
51.6394 86.3663 -21.2171 1.10682 -4.76655 -5.10453 1.23234e-007 14.8421 1.27319e-009 -1.60046 17.3338 -0.937323 0.51659 29.8236 6.51843 -1.78057 -11.6813 0.310356 1.16803e-007 7.47049 6.44171e-007 1.11006 17.7006 -0.157045 6.64893 27.3161 3.27471 -2.94784 5.93879 -4.20517 10.8584 2.41798 -0.945791 154.774 -55.9006 93.6197 3.77631 -24.5904 -1.70468 11.3348 -2.5117 -39.0687 1.01026 -21.1231 1.74131 32.276 -8.84642 5.6451 -6.11406 27.2248 4.23427 -1.96452 7.32629 3.42623 -10.4566 2.3285 -0.910794 -166.431 -56.9706 -116.216 -3.86856 -25.191 -1.74633 -8.67641 -1.10024 56.2451 -1.04759 -20.6242 1.75213 -18.6519 0.66333 -2.04721 9 -3.38008e-006 -5.22997e-009 17.0802 -18.6792 17.9131 -0.575 -51.431 3.90177 -15.4382 55.2586 -14.0218 2.13082e-007 -43.5882 -3.90177 26.9417 -12.1452 0.135018 -9 6.86154e-007 -3.19535e-009 -18.3904 -23.4807 -15.32 0.575 -51.4311 3.90177 -11.068 53.7402 18.6111 -7.46079e-007 -43.5882 -3.90177 -14.605 -20.4106 -1.04278 
51.6301 86.3772 -21.1772 1.12532 -4.80607 -4.93677 1.23234e-007 14.8421 1.27319e-009 -1.54298 17.3118 -1.05836 0.51659 29.8236 6.51843 -1.83996 -11.7812 0.280553 1.16803e-007 7.47049 6.44171e-007 1.23721 17.6306 -0.238023 6.64893 27.3161 3.27471 -2.94784 5.93879 -4.20517 10.8584 2.41798 -0.945791 154.363 -56.1426 92.7678 3.77631 -24.5904 -1.70468 11.4746 -2.61247 -38.5388 1.01026 -21.1231 1.74131 32.2609 -7.90693 5.44051 -6.11406 27.2248 4.23427 -1.96452 7.32629 3.42623 -10.4566 2.3285 -0.910794 -166.351 -56.9811 -115.928 -3.86856 -25.191 -1.74633 -8.65504 -1.08644 56.2338 -1.04759 -20.6242 1.75213 -18.2448 0.701573 -1.99614 9 -3.38008e-006 -5.22997e-009 17.0295 -18.663 17.8419 -0.575 -51.431 3.90177 -15.4316 55.2573 -14.1412 2.13082e-007 -43.5882 -3.90177 26.9298 -12.1034 0.12493 -9 6.86154e-007 -3.19535e-009 -18.4261 -23.3354 -15.3632 0.575 -51.4311 3.90177 -11.0666 53.7222 18.5134 -7.46079e-007 -43.5882 -3.90177 -14.614 -20.4811 -1.05207 
51.6213 86.4019 -21.14 1.22342 -4.77655 -4.79701 1.23234e-007 14.8421 1.27319e-009 -1.62122 17.2558 -1.30049 0.51659 29.8236 6.51843 -1.88709 -11.8136 0.212105 1.16803e-007 7.47049 6.44171e-007 1.33777 17.4424 -0.341547 6.64893 27.3161 3.27471 -2.94784 5.93879 -4.20517 10.8584 2.41798 -0.945791 153.384 -56.3651 90.1251 3.77631 -24.5904 -1.70468 11.9202 -2.95613 -36.032 1.01026 -21.1231 1.74131 31.2229 -9.04111 5.46334 -6.11406 27.2248 4.23427 -1.96452 7.32629 3.42623 -10.4566 2.3285 -0.910794 -166.219 -57.0584 -114.787 -3.86856 -25.191 -1.74633 -8.76472 -1.1718 55.4709 -1.04759 -20.6242 1.75213 -18.38 1.14947 -1.97028 9 -3.38008e-006 -5.22997e-009 16.897 -18.6743 17.7427 -0.575 -51.431 3.90177 -15.3997 55.1617 -14.2636 2.13082e-007 -43.5882 -3.90177 26.8791 -12.0296 0.106972 -9 6.86154e-007 -3.19535e-009 -18.5196 -23.3079 -15.4123 0.575 -51.4311 3.90177 -11.1276 53.7392 18.4716 -7.46079e-007 -43.5882 -3.90177 -14.5493 -20.4434 -1.0415 
51.613 86.4295 -21.0928 1.16896 -4.83988 -4.82727 1.23234e-007 14.8421 1.27319e-009 -1.63464 17.3499 -1.26145 0.51659 29.8236 6.51843 -1.72991 -11.5292 0.18308 1.16803e-007 7.47049 6.44171e-007 1.17998 17.2286 -0.279786 6.64893 27.3161 3.27471 -2.94784 5.93879 -4.20517 10.8584 2.41798 -0.945791 153.463 -56.3869 90.4127 3.77631 -24.5904 -1.70468 11.8147 -2.89805 -36.1253 1.01026 -21.1231 1.74131 29.9843 -9.9711 5.388 -6.11406 27.2248 4.23427 -1.96452 7.32629 3.42623 -10.4566 2.3285 -0.910794 -166.096 -57.0144 -114.729 -3.86856 -25.191 -1.74633 -8.75826 -1.16711 55.5853 -1.04759 -20.6242 1.75213 -18.8163 1.35838 -1.99944 9 -3.38008e-006 -5.22997e-009 16.949 -18.5462 17.7788 -0.575 -51.431 3.90177 -15.341 55.1025 -14.2511 2.13082e-007 -43.5882 -3.90177 26.7775 -11.993 0.0975908 -9 6.86154e-007 -3.19535e-009 -18.3849 -23.1897 -15.277 0.575 -51.4311 3.90177 -11.1726 53.6494 18.4352 -7.46079e-007 -43.5882 -3.90177 -14.5469 -20.4324 -1.03996 
51.614 86.4497 -21.0694 1.20289 -4.84145 -4.7506 1.23233e-007 14.8421 1.27319e-009 -1.68669 17.3882 -1.36181 0.51659 29.8236 6.51843 -1.31196 -11.1372 0.197139 1.16803e-007 7.47049 6.44171e-007 0.597967 16.7553 0.0198413 6.64893 27.3161 3.27471 -2.94784 5.93879 -4.20517 10.8584 2.41798 -0.945791 153.349 -56.3019 89.9401 3.77631 -24.5904 -1.70468 11.7121 -2.84439 -36.2584 1.01026 -21.1231 1.74131 30.4888 -9.12117 5.32509 -6.11406 27.2248 4.23427 -1.96452 7.32629 3.42623 -10.4566 2.3285 -0.910794 -166.082 -56.9781 -114.656 -3.86856 -25.191 -1.74633 -8.74335 -1.15852 55.4516 -1.04759 -20.6242 1.75213 -18.8628 1.57245 -1.98377 9 -3.38008e-006 -5.22997e-009 16.8683 -18.5461 17.6949 -0.575 -51.431 3.90177 -15.2871 55.0602 -14.2708 2.13082e-007 -43.5882 -3.90177 26.8021 -12.0088 0.10149 -9 6.86154e-007 -3.19535e-009 -18.4183 -23.1423 -15.2965 0.575 -51.4311 3.90177 -11.185 53.6276 18.3962 -7.46079e-007 -43.5882 -3.90177 -14.525 -20.3892 -1.03278 
51.6075 86.4519 -21.0468 1.18529 -4.80538 -4.63615 1.23233e-007 14.8421 1.27319e-009 -1.66582 17.3734 -1.43857 0.51659 29.8236 6.51843 -1.7708 -11.3159 0.23323 1.16803e-007 7.47049 6.44171e-007 1.10847 17.1102 -0.219483 6.64893 27.3161 3.27471 -2.94784 5.93879 -4.20517 10.8584 2.41798 -0.945791 153.313 -56.1687 89.5405 3.77631 -24.5904 -1.70468 11.6919 -2.82355 -36.5208 1.01026 -21.1231 1.74131 32.1039 -8.33194 5.50093 -6.11406 27.2248 4.23427 -1.96452 7.32629 3.42623 -10.4566 2.3285 -0.910794 -165.978 -56.9228 -114.578 -3.86856 -25.191 -1.74633 -8.71176 -1.13944 55.2993 -1.04759 -20.6242 1.75213 -18.4894 1.3255 -1.96634 9 -3.38008e-006 -5.22997e-009 16.8884 -18.6107 17.6979 -0.575 -51.431 3.90177 -15.2941 55.0895 -14.2819 2.13082e-007 -43.5882 -3.90177 26.8231 -12.0114 0.10225 -9 6.86154e-007 -3.19535e-009 -18.4219 -23.1307 -15.3508 0.575 -51.4311 3.90177 -11.1664 53.6545 18.3162 -7.46079e-007 -43.5882 -3.90177 -14.4954 -20.3546 -1.02591 
51.6004 86.4359 -21.0335 1.19243 -4.67813 -4.59189 1.23233e-007 14.8421 1.27319e-009 -1.65167 17.2852 -1.38972 0.51659 29.8236 6.51843 -1.81317 -11.2321 0.284118 1.16803e-007 7.47049 6.44171e-007 1.24802 17.0899 -0.227084 6.64893 27.3161 3.27471 -2.94784 5.93879 -4.20517 10.8584 2.41798 -0.945791 153.351 -56.0217 89.6439 3.77631 -24.5904 -1.70468 11.6908 -2.81782 -36.5159 1.01026 -21.1231 1.74131 32.4488 -8.20367 5.54312 -6.11406 27.2248 4.23427 -1.96452 7.32629 3.42623 -10.4566 2.3285 -0.910794 -166.096 -56.8145 -115.44 -3.86856 -25.191 -1.74633 -8.7705 -1.15796 56.0897 -1.04759 -20.6242 1.75213 -17.8536 1.17855 -1.90788 9 -3.38008e-006 -5.22997e-009 16.9161 -18.7508 17.7133 -0.575 -51.431 3.90177 -15.3118 55.1221 -14.3069 2.13082e-007 -43.5882 -3.90177 26.8708 -12.0528 0.112428 -9 6.86154e-007 -3.19534e-009 -18.4212 -23.2556 -15.3666 0.575 -51.4311 3.90177 -11.2012 53.7126 18.2655 -7.46079e-007 -43.5882 -3.90177 -14.4744 -20.3437 -1.02267 
51.597 86.4106 -20.993 1.19926 -4.63044 -4.61602 1.23233e-007 14.8421 1.27319e-009 -1.70641 17.2925 -1.3592 0.51659 29.8236 6.51843 -1.49906 -10.6875 0.330039 1.16803e-007 7.47049 6.44171e-007 0.9481 16.2942 -0.00786759 6.64893 27.3161 3.27471 -2.94784 5.93879 -4.20517 10.8584 2.41798 -0.945791 153.585 -55.7818 90.031 3.77631 -24.5904 -1.70468 11.6288 -2.77391 -36.8392 1.01026 -21.1231 1.74131 32.0809 -8.21213 5.46843 -6.11406 27.2248 4.23427 -1.96452 7.32629 3.42623 -10.4566 2.3285 -0.910794 -166.047 -56.7791 -115.334 -3.86856 -25.191 -1.74633 -8.72438 -1.12938 56.0137 -1.04759 -20.6242 1.75213 -17.563 0.92468 -1.89603 9 -3.38008e-006 -5.22997e-009 16.9114 -18.7922 17.7089 -0.575 -51.431 3.90177 -15.3289 55.1786 -14.2572 2.13082e-007 -43.5882 -3.90177 26.8435 -12.0385 0.108825 -9 6.86154e-007 -3.19534e-009 -18.391 -23.3092 -15.3056 0.575 -51.4311 3.90177 -11.2798 53.7504 18.2645 -7.46079e-007 -43.5882 -3.90177 -14.4699 -20.3893 -1.02767 
